<?xml version="1.0" encoding="UTF-8"?>
<svg id="Layer_1" data-name="Layer 1" xmlns="http://www.w3.org/2000/svg" viewBox="0 0 500 60">
  <defs>
    <style>
      .cls-1 {
        fill: #dcc2bb;
      }

      @media (prefers-color-scheme: dark) {
        .cls-1 { fill: #1e2351;}
      }
    </style>
  </defs>
  <path class="cls-1" d="M175.47,12.4h25.59c2.78,0,4.85.27,6.2.82s2.43,1.57,3.22,3.08,1.2,3.18,1.2,5c0,1.98-.47,3.81-1.41,5.48s-2.32,2.82-4.16,3.43-4.39.93-7.65.93h-5.55v11.58h4.31v1.1h-21.75v-1.1h3.75V13.51h-3.75v-1.1ZM197.9,26.61v-8.25c0-1.44-.1-2.5-.3-3.19s-.5-1.14-.9-1.35-1.08-.32-2.05-.32h-1.73v16.55h1.69c2.2,0,3.3-1.15,3.3-3.45Z"/>
  <path class="cls-1" d="M240.41,40.08c-1.42,2.92-4.02,4.38-7.8,4.38-2.06,0-3.8-.69-5.2-2.06-2.19,1.38-4.38,2.06-6.56,2.06s-4.14-.54-5.61-1.61-2.21-2.41-2.21-4.02c0-1.83.77-3.26,2.32-4.3s3.67-1.56,6.38-1.56c2.08,0,3.9.26,5.46.77v-4.66c0-1.27-.16-2.13-.47-2.59s-.79-.81-1.43-1.04-1.35-.35-2.13-.35c-.98,0-1.72.12-2.2.35,1.69.5,2.53,1.62,2.53,3.35,0,1.16-.34,2.08-1.03,2.77s-1.6,1.03-2.74,1.03c-1.2,0-2.18-.35-2.92-1.05s-1.11-1.62-1.11-2.74c0-1.53.75-2.71,2.24-3.55s3.61-1.25,6.34-1.25c2.91,0,5.29.2,7.15.61s3.23.92,4.1,1.54,1.48,1.27,1.8,1.95.49,1.73.49,3.15v8.84c0,.48.02.8.06.96s.14.23.32.23c.3,0,.77-.54,1.41-1.62l.84.42ZM227.17,41.54v-6.73c-1-.39-1.78-.59-2.34-.59-.62,0-1.07.16-1.34.47s-.4.83-.4,1.55v4.34c0,1.31.48,1.97,1.43,1.97.56,0,1.45-.34,2.65-1.01Z"/>
  <path class="cls-1" d="M270.48,43.83h-8.88c-1.78,0-3.37.2-4.76.59v-2.23c-1.94,1.52-3.89,2.27-5.86,2.27-2.78,0-5.04-.97-6.79-2.92s-2.61-4.42-2.61-7.42.82-5.42,2.46-7.3,3.77-2.82,6.38-2.82c1.89,0,4.03.52,6.42,1.55v-12.19h-3.16v-.96h7.78c2.19,0,4.2-.2,6.05-.59v31.05h2.98v.96ZM256.84,40.9v-14.3c-1.03-.45-1.73-.68-2.11-.68-.59,0-1.09.23-1.48.69s-.59,1.08-.59,1.86v11.65c0,.67.14,1.2.43,1.58s.64.57,1.07.57c.75,0,1.64-.46,2.67-1.38Z"/>
  <path class="cls-1" d="M300.67,43.83h-8.88c-1.78,0-3.37.2-4.76.59v-2.23c-1.94,1.52-3.89,2.27-5.86,2.27-2.78,0-5.04-.97-6.79-2.92s-2.61-4.42-2.61-7.42.82-5.42,2.46-7.3,3.77-2.82,6.38-2.82c1.89,0,4.03.52,6.42,1.55v-12.19h-3.16v-.96h7.78c2.19,0,4.2-.2,6.05-.59v31.05h2.98v.96ZM287.03,40.9v-14.3c-1.03-.45-1.73-.68-2.11-.68-.59,0-1.09.23-1.48.69s-.59,1.08-.59,1.86v11.65c0,.67.14,1.2.43,1.58s.64.57,1.07.57c.75,0,1.64-.46,2.67-1.38Z"/>
  <path class="cls-1" d="M325.77,25.29c-.91.16-1.66.52-2.25,1.08s-1.23,1.53-1.92,2.91l-10.62,20.98c-1.47,2.89-3.24,4.34-5.32,4.34-1.33,0-2.42-.42-3.28-1.27s-1.29-1.91-1.29-3.21.43-2.46,1.28-3.35,1.92-1.34,3.2-1.34c1.16,0,2.14.34,2.96,1.02s1.33,1.61,1.54,2.8h.09l2.88-5.6-10.5-18.35h-1.27v-.94h15.61v.94h-2.02l3.98,7.01c.95-1.83,1.5-2.96,1.63-3.4s.2-.8.2-1.1c0-.83-.24-1.43-.71-1.79s-1.23-.61-2.26-.71v-.94h8.06v.94Z"/>
</svg>