<?xml version="1.0" encoding="UTF-8"?>
<svg id="Layer_2" data-name="Layer 2" xmlns="http://www.w3.org/2000/svg" viewBox="0 0 74.72 251.89">
  <defs>
    <style>
      .cls-1 {
        fill: #dcc2bb;
      }

      .cls-2 {
        stroke: #1e2351;
        stroke-miterlimit: 10;
        stroke-width: 2px;
      }

      .cls-2 {
        fill: #1e2351;

      }

      @media (prefers-color-scheme: dark) {
        .cls-2 { fill: #dcc2bb;
        stroke: #dcc2bb; }
      }
      .cls-3 {
        fill: #1e2351;
      }
    </style>
  </defs>
  <g id="My_design" data-name="My design">
    <path class="cls-2" d="M73.72,125.94c0,53.34-29.32,99.84-72.72,124.24V1.71c43.4,24.4,72.72,70.89,72.72,124.23Z"/>
    <g>
      <circle class="cls-3" cx="38.26" cy="102.3" r="22.94"/>
      <circle class="cls-1" cx="38.26" cy="102.3" r="21.92"/>
      <circle class="cls-3" cx="38.26" cy="102.3" r="21.36"/>
      <g>
        <path class="cls-1" d="M20.62,98.76v-1.92h.09c.23.53.6.96,1.09,1.3s1,.51,1.53.51c.24,0,.42-.03.54-.1s.19-.16.19-.29c0-.17-.28-.39-.85-.64-.22-.1-.4-.18-.54-.24l-.13-.06c-1.33-.62-1.99-1.27-1.99-1.96,0-.48.16-.88.47-1.19s.72-.46,1.21-.46c.32,0,.63.07.94.2s.6.33.88.58l.66-.72v1.67h-.09c-.28-.46-.63-.83-1.08-1.13s-.86-.44-1.26-.44c-.18,0-.32.03-.42.09s-.16.14-.16.23c0,.14.33.36.98.66.3.13.54.24.72.33.76.36,1.26.67,1.48.93s.34.58.34.97c0,.52-.17.94-.51,1.26s-.79.47-1.34.47c-.36,0-.71-.06-1.04-.19s-.64-.32-.93-.58l-.81.71Z"/>
        <path class="cls-1" d="M26.27,94h-.4v-.18h2.69v.81c.13-.29.33-.52.59-.68s.57-.24.9-.24c.53,0,.93.12,1.2.36s.41.59.41,1.06v3.39h.41v.18h-2.97v-.18h.27v-4.09c0-.07-.01-.12-.04-.16s-.07-.05-.12-.05c-.15,0-.3.13-.44.39s-.21.58-.21.94v2.96h.27v.18h-2.96v-.18h.4v-4.52Z"/>
        <path class="cls-1" d="M34.07,94.02c.26.05.46.15.62.32s.23.35.23.58c0,.28-.1.52-.3.69s-.46.27-.78.27c-.28,0-.5-.08-.68-.25s-.26-.38-.26-.64c0-.41.21-.73.63-.95s1.03-.33,1.82-.33c.54,0,1.01.06,1.4.17s.69.27.88.49c.1.11.17.24.22.39s.06.41.06.78v2.28c0,.15.01.24.03.28s.06.06.11.06c.1,0,.18-.1.24-.3s.09-.48.09-.82h.18v.14c0,.55-.13.96-.38,1.24s-.63.41-1.14.41c-.34,0-.63-.07-.88-.22s-.42-.36-.53-.64c-.16.28-.38.49-.65.64s-.58.22-.92.22c-.42,0-.76-.14-1.02-.41s-.39-.63-.39-1.08c0-.21.04-.4.12-.55s.19-.28.34-.38c.11-.07.3-.13.58-.17s.47-.07.57-.1c.5-.12.85-.27,1.06-.45s.31-.45.31-.79c0-.43-.06-.7-.19-.82s-.37-.18-.73-.18c-.09,0-.19.01-.3.03s-.22.05-.34.09ZM35.64,97.08v-1.44c-.28.2-.46.38-.56.54s-.15.35-.15.56v.84c0,.21.02.35.05.41s.09.09.17.09c.15,0,.27-.09.36-.27s.14-.42.14-.73Z"/>
        <path class="cls-1" d="M39.44,94h-.41v-.18h2.7v.45c.11-.2.25-.34.41-.43s.36-.14.59-.14c.6,0,1.13.25,1.57.76s.67,1.1.67,1.8-.22,1.34-.66,1.82-.97.73-1.59.73c-.23,0-.43-.05-.59-.14s-.29-.25-.4-.45v2.72h.41v.18h-3.11v-.18h.41v-6.94ZM41.73,97.24c0,.38.06.68.18.92s.26.36.43.36c.08,0,.14-.03.18-.08s.07-.13.07-.23v-3.94c0-.09-.02-.16-.07-.21s-.11-.08-.18-.08c-.16,0-.3.11-.42.34s-.18.51-.18.85v2.07Z"/>
        <path class="cls-1" d="M49.86,96.79c-.16-.23-.29-.45-.37-.66s-.12-.41-.12-.61c0-.5.21-.93.62-1.29s.92-.53,1.52-.53c.33,0,.59.08.77.24s.28.38.28.67c0,.2-.05.38-.14.54s-.24.3-.44.43l1.46,1.78.35-.49c.09-.11.15-.23.21-.36s.08-.23.08-.32c0-.13-.05-.23-.15-.3s-.24-.1-.43-.1h-.11v-.18h1.9v.18h-.05c-.16,0-.32.05-.47.16s-.31.28-.48.52l-.73,1.06.93,1.09c.21.24.38.42.52.53s.26.16.37.16c.12,0,.22-.06.28-.17s.11-.31.13-.59h.17c-.02.58-.22,1.07-.59,1.44s-.84.57-1.4.57c-.4,0-.75-.09-1.05-.27s-.65-.51-1.04-1c-.46.49-.86.82-1.19.99s-.7.26-1.1.26-.75-.13-1.01-.38-.39-.57-.39-.95c0-.31.11-.62.33-.95s.67-.82,1.35-1.47ZM49.96,96.96c-.15.12-.24.21-.29.28s-.07.14-.07.21c0,.12.06.28.17.47s.28.44.5.71.42.48.6.63.32.22.44.22c.06,0,.13-.03.2-.08s.15-.13.24-.24c-.4-.52-.74-.94-1.02-1.27s-.53-.64-.77-.92ZM51.5,94.91l.38.54c.17-.1.3-.22.39-.36s.13-.3.13-.49c0-.23-.07-.41-.21-.55s-.33-.2-.56-.2c-.14,0-.25.03-.32.1s-.11.16-.11.28c0,.08.02.17.06.26s.12.23.25.41Z"/>
        <g>
          <path class="cls-1" d="M23.44,109.84h1.91c.15,0,.27.05.38.15s.16.23.16.38-.05.27-.16.38-.23.15-.38.15h-1.98c-.25,0-.51-.08-.78-.24s-.46-.34-.56-.54l-1.22-2.36c-.16-.34-.25-.69-.25-1.05,0-.4.08-.74.23-1.03l1.24-2.34c.12-.22.3-.41.55-.58s.49-.25.72-.25h2.09c.15,0,.27.05.38.16s.15.23.15.37-.05.27-.15.38-.23.16-.37.16h-2.02c-.17,0-.3.1-.41.3l-1.18,2.19c-.09.17-.14.38-.14.61,0,.25.05.47.15.66l1.12,2.16c.1.22.28.33.52.33Z"/>
          <path class="cls-1" d="M32.26,103.3l1.17,2.38c.16.32.25.67.25,1.05s-.08.72-.25,1.05l-1.17,2.35c-.25.52-.67.78-1.26.78-.28,0-.53-.07-.76-.22s-.39-.33-.51-.55l-1.17-2.35c-.16-.31-.23-.66-.23-1.05s.08-.74.23-1.05l1.17-2.38c.26-.52.69-.78,1.27-.78s1.01.26,1.26.78ZM30.64,103.83l-1.1,2.23c-.1.22-.15.44-.15.66,0,.23.05.45.15.66l1.13,2.26c.06.14.17.21.32.21.13,0,.24-.07.31-.21l1.14-2.26c.11-.22.16-.44.16-.66,0-.23-.05-.45-.16-.66l-1.11-2.23c-.07-.16-.18-.25-.33-.25s-.27.08-.35.25Z"/>
          <path class="cls-1" d="M36.65,102.52h2.09c.27,0,.54.09.8.26s.45.38.57.62l1.05,2.12c.2.38.3.78.3,1.2,0,.39-.11.78-.32,1.19l-1.05,2.09c-.13.27-.33.48-.58.65s-.53.24-.85.24h-2.02c-.15,0-.27-.05-.38-.16s-.15-.23-.15-.37.05-.27.15-.38.23-.16.38-.16h.55v-6.24h-.54c-.15,0-.27-.05-.38-.16s-.15-.23-.15-.38.05-.27.15-.37.23-.16.38-.16ZM38.25,103.6v6.25h.37c.23,0,.41-.12.53-.35l1.05-2.08c.13-.27.2-.5.2-.69,0-.23-.05-.45-.16-.66l-1.08-2.16c-.11-.21-.3-.32-.56-.32h-.35Z"/>
          <path class="cls-1" d="M48.74,103.6h-3.75v2.58h1.61c.14,0,.27.05.37.16s.16.23.16.37c0,.15-.05.28-.15.38s-.23.16-.38.16h-1.61v2.6h3.76c.14,0,.27.05.37.15s.16.23.16.38-.05.27-.16.38-.23.15-.38.15h-4.81v-8.38h4.81c.15,0,.27.05.38.16s.16.23.16.38-.05.27-.16.37-.23.16-.38.16Z"/>
          <path class="cls-1" d="M55.96,107.61v2.75c0,.15-.05.27-.16.38s-.23.15-.37.15c-.15,0-.28-.05-.38-.15s-.16-.23-.16-.38v-2.22h-1.61c-.14,0-.26-.05-.37-.16s-.15-.23-.15-.38.05-.27.15-.37.23-.16.38-.16h2.14c.14,0,.26.05.37.16s.16.23.16.38ZM53.31,103.43h1.07c.15,0,.27.05.38.15s.15.23.15.38v.91c0,.15-.05.27-.15.38s-.23.15-.38.15h-1.07c-.15,0-.27-.05-.38-.15s-.15-.23-.15-.38v-.91c0-.14.05-.27.16-.37s.23-.16.37-.16Z"/>
        </g>
      </g>
    </g>
  </g>
</svg>