<?xml version="1.0" encoding="UTF-8"?>
<svg id="Layer_1" data-name="Layer 1" xmlns="http://www.w3.org/2000/svg" viewBox="0 0 160 160">
  <defs>
    <style>
      .cls-1 {
        fill: #dcc2bb;
      }

      .cls-2 {
        fill: #1e2351;
      }
    </style>
  </defs>
  <circle class="cls-2" cx="80" cy="80" r="80"/>
  <circle class="cls-1" cx="80" cy="80" r="76.45"/>
  <circle class="cls-2" cx="80" cy="80" r="74.47"/>
  <g>
    <path class="cls-1" d="M18.49,67.63v-6.7h.33c.82,1.84,2.08,3.35,3.8,4.53s3.5,1.77,5.34,1.77c.83,0,1.46-.12,1.89-.36s.65-.57.65-1c0-.61-.99-1.35-2.98-2.22-.78-.34-1.41-.62-1.87-.84l-.45-.2c-4.63-2.15-6.95-4.43-6.95-6.85,0-1.69.55-3.07,1.64-4.14s2.5-1.61,4.23-1.61c1.11,0,2.21.23,3.28.69s2.09,1.14,3.05,2.02l2.3-2.5v5.82h-.3c-.96-1.6-2.21-2.91-3.75-3.93s-3-1.53-4.38-1.53c-.62,0-1.11.1-1.48.31s-.55.48-.55.81c0,.5,1.14,1.26,3.42,2.3,1.04.46,1.87.85,2.51,1.16,2.66,1.26,4.38,2.34,5.18,3.26s1.19,2.04,1.19,3.37c0,1.82-.59,3.28-1.77,4.38s-2.74,1.65-4.68,1.65c-1.27,0-2.47-.22-3.61-.67s-2.22-1.12-3.25-2.01l-2.81,2.46Z"/>
    <path class="cls-1" d="M38.21,51.04h-1.39v-.61h9.38v2.81c.45-1.01,1.14-1.81,2.06-2.37s1.97-.85,3.15-.85c1.84,0,3.24.42,4.19,1.27s1.43,2.07,1.43,3.68v11.83h1.42v.65h-10.35v-.65h.94v-14.26c0-.24-.05-.43-.15-.55s-.24-.19-.43-.19c-.53,0-1.04.46-1.53,1.37s-.74,2.01-.74,3.29v10.34h.94v.65h-10.32v-.65h1.39v-15.75Z"/>
    <path class="cls-1" d="M65.4,51.11c.89.17,1.61.53,2.15,1.1s.81,1.24.81,2.01c0,.99-.35,1.8-1.05,2.42s-1.61.93-2.72.93c-.97,0-1.76-.29-2.37-.86s-.91-1.31-.91-2.22c0-1.44.73-2.55,2.19-3.32s3.58-1.16,6.34-1.16c1.89,0,3.51.2,4.89.59s2.4.96,3.07,1.7c.35.37.6.83.75,1.36s.22,1.44.22,2.72v7.94c0,.51.04.84.11.98s.2.22.37.22c.35,0,.63-.35.84-1.05s.31-1.66.31-2.87h.65v.5c0,1.92-.44,3.35-1.32,4.31s-2.21,1.43-3.97,1.43c-1.19,0-2.21-.26-3.05-.78s-1.46-1.26-1.86-2.22c-.56.96-1.31,1.7-2.26,2.22s-2.01.78-3.2.78c-1.46,0-2.64-.48-3.55-1.44s-1.36-2.21-1.36-3.75c0-.74.14-1.38.41-1.92s.67-.98,1.2-1.32c.39-.25,1.06-.45,2.03-.59s1.62-.25,1.98-.34c1.73-.41,2.96-.93,3.68-1.56s1.08-1.56,1.08-2.77c0-1.49-.22-2.44-.65-2.84s-1.29-.61-2.56-.61c-.32,0-.67.04-1.05.11s-.78.17-1.2.31ZM70.85,61.77v-5.01c-.96.69-1.62,1.32-1.97,1.88s-.53,1.2-.53,1.94v2.94c0,.74.06,1.21.17,1.42s.32.31.6.31c.52,0,.93-.32,1.25-.95s.47-1.48.47-2.54Z"/>
    <path class="cls-1" d="M84.1,51.04h-1.42v-.61h9.41v1.55c.4-.68.87-1.18,1.42-1.5s1.24-.47,2.07-.47c2.11,0,3.94.88,5.49,2.64s2.33,3.85,2.33,6.28-.77,4.66-2.3,6.36c-1.53,1.7-3.39,2.56-5.56,2.56-.82,0-1.5-.17-2.06-.5s-1.02-.86-1.4-1.56v9.48h1.42v.65h-10.83v-.65h1.42v-24.21ZM92.09,62.35c0,1.31.2,2.38.61,3.22s.9,1.25,1.49,1.25c.28,0,.49-.09.65-.28s.23-.45.23-.79v-13.73c0-.32-.08-.57-.23-.74s-.37-.26-.65-.26c-.56,0-1.05.39-1.47,1.17s-.63,1.77-.63,2.96v7.21Z"/>
    <path class="cls-1" d="M120.46,60.78c-.57-.8-1-1.57-1.27-2.29s-.41-1.44-.41-2.14c0-1.75.72-3.25,2.16-4.48,1.44-1.23,3.21-1.85,5.32-1.85,1.15,0,2.04.28,2.69.84s.97,1.34.97,2.33c0,.69-.17,1.32-.5,1.88s-.84,1.06-1.54,1.51l5.09,6.2,1.21-1.7c.3-.4.54-.82.72-1.26s.27-.81.27-1.11c0-.46-.17-.82-.52-1.06s-.85-.36-1.51-.36h-.38v-.61h6.62v.61h-.17c-.56,0-1.11.19-1.63.56s-1.08.98-1.66,1.8l-2.55,3.7,3.26,3.79c.73.85,1.33,1.46,1.82,1.84s.92.56,1.29.56c.43,0,.75-.2.97-.6s.37-1.09.45-2.07h.58c-.07,2.04-.75,3.72-2.06,5.04s-2.94,1.98-4.89,1.98c-1.38,0-2.6-.31-3.67-.94s-2.28-1.79-3.64-3.47c-1.62,1.7-3.01,2.85-4.16,3.46s-2.43.92-3.83.92-2.62-.44-3.52-1.32-1.36-1.99-1.36-3.32c0-1.07.38-2.18,1.14-3.32s2.33-2.85,4.71-5.11ZM120.79,61.36c-.51.41-.85.73-1.02.97s-.26.48-.26.72c0,.41.2.96.59,1.65s.97,1.52,1.74,2.48,1.47,1.69,2.09,2.19,1.13.75,1.53.75c.22,0,.45-.09.7-.26s.53-.46.85-.84c-1.41-1.8-2.59-3.27-3.54-4.43s-1.85-2.23-2.7-3.23ZM126.18,54.22l1.32,1.89c.6-.34,1.04-.76,1.35-1.25s.45-1.06.45-1.7c0-.8-.24-1.44-.73-1.9s-1.14-.69-1.95-.69c-.49,0-.86.12-1.12.35s-.4.56-.4.99c0,.29.07.59.2.9s.42.79.88,1.41Z"/>
    <g>
      <path class="cls-1" d="M28.32,106.29h6.67c.51,0,.96.18,1.33.54s.56.8.56,1.31-.19.95-.56,1.31-.82.54-1.33.54h-6.9c-.88,0-1.79-.28-2.73-.84s-1.59-1.18-1.96-1.87l-4.27-8.25c-.57-1.19-.86-2.4-.86-3.65,0-1.38.27-2.57.81-3.58l4.31-8.16c.41-.76,1.05-1.43,1.91-2.01s1.7-.87,2.51-.87h7.3c.51,0,.95.18,1.31.55s.54.8.54,1.3-.18.96-.54,1.33-.8.56-1.31.56h-7.03c-.58,0-1.06.35-1.43,1.04l-4.1,7.65c-.32.6-.48,1.31-.48,2.13,0,.87.17,1.63.52,2.29l3.91,7.52c.36.78.97,1.16,1.8,1.16Z"/>
      <path class="cls-1" d="M59.07,83.47l4.07,8.29c.57,1.13.86,2.35.86,3.67s-.29,2.51-.86,3.65l-4.07,8.2c-.86,1.8-2.33,2.7-4.4,2.7-.98,0-1.87-.26-2.65-.77s-1.37-1.16-1.77-1.94l-4.09-8.2c-.54-1.07-.81-2.29-.81-3.65s.27-2.59.81-3.67l4.09-8.29c.92-1.8,2.4-2.7,4.42-2.7s3.52.9,4.4,2.7ZM53.44,85.31l-3.83,7.78c-.35.78-.53,1.54-.53,2.29,0,.81.18,1.58.53,2.31l3.94,7.87c.21.48.58.73,1.12.73.47,0,.83-.24,1.08-.73l3.96-7.87c.37-.78.55-1.55.55-2.31,0-.81-.18-1.57-.55-2.29l-3.87-7.78c-.25-.57-.64-.86-1.17-.86s-.94.29-1.23.86Z"/>
      <path class="cls-1" d="M74.39,80.76h7.3c.95.01,1.88.32,2.78.92s1.56,1.33,1.99,2.18l3.65,7.39c.69,1.33,1.03,2.73,1.03,4.18,0,1.35-.37,2.73-1.1,4.16l-3.67,7.3c-.47.94-1.14,1.69-2.02,2.25s-1.86.85-2.95.85h-7.06c-.51,0-.95-.18-1.31-.55s-.54-.8-.54-1.3.18-.96.54-1.33.8-.56,1.31-.56h1.94v-21.75h-1.89c-.51,0-.95-.19-1.31-.56s-.54-.82-.54-1.33.18-.93.54-1.3.8-.55,1.31-.55ZM79.98,84.5v21.79h1.29c.82,0,1.43-.41,1.84-1.21l3.65-7.26c.45-.95.68-1.75.69-2.4,0-.8-.18-1.57-.55-2.29l-3.78-7.52c-.4-.75-1.04-1.12-1.94-1.12h-1.21Z"/>
      <path class="cls-1" d="M116.55,84.5h-13.06v8.99h5.63c.5,0,.93.18,1.3.55s.55.8.55,1.3c0,.53-.18.97-.54,1.34s-.8.55-1.31.55h-5.63v9.06h13.11c.5,0,.93.18,1.3.54s.55.8.55,1.31-.19.95-.56,1.31-.82.54-1.33.54h-16.76v-29.22h16.76c.51,0,.96.19,1.33.56s.56.82.56,1.33-.19.93-.56,1.3-.82.55-1.33.55Z"/>
      <path class="cls-1" d="M141.72,98.51v9.59c0,.51-.18.95-.55,1.31s-.8.54-1.3.54c-.53,0-.97-.18-1.34-.54s-.55-.8-.55-1.31v-7.74h-5.63c-.5,0-.92-.19-1.28-.56s-.53-.82-.53-1.33.18-.93.54-1.3.8-.55,1.31-.55h7.48c.48,0,.91.19,1.29.56s.56.82.56,1.33ZM132.49,83.91h3.74c.51,0,.95.18,1.31.54s.54.8.54,1.31v3.17c0,.51-.18.95-.54,1.31s-.8.54-1.31.54h-3.74c-.51,0-.95-.18-1.31-.54s-.54-.8-.54-1.31v-3.17c0-.5.18-.93.55-1.3s.8-.55,1.3-.55Z"/>
    </g>
  </g>
</svg>